HIERARCHY
ROOT joint_Root
{
	OFFSET 0.0 0.0 0.0
	CHANNELS 6 Xposition Yposition Zposition Zrotation Xrotation Yrotation 
	JOINT Hips
	{
		OFFSET -17.1583 93.1646 452.98
		CHANNELS 6 Xposition Yposition Zposition Zrotation Xrotation Yrotation 
		JOINT Spine
		{
			OFFSET 15.7357 0.0 0.0
			CHANNELS 6 Xposition Yposition Zposition Zrotation Xrotation Yrotation 
			JOINT Chest
			{
				OFFSET 8.98455 -0.406207 0.0
				CHANNELS 6 Xposition Yposition Zposition Zrotation Xrotation Yrotation 
				JOINT Neck
				{
					OFFSET 16.3773 0.0 0.0
					CHANNELS 6 Xposition Yposition Zposition Zrotation Xrotation Yrotation 
					JOINT Head
					{
						OFFSET 6.45672 0.0 0.0
						CHANNELS 6 Xposition Yposition Zposition Zrotation Xrotation Yrotation 
						End Site
						{
							OFFSET 0.0 0.0 0.0
						}
					}
				}
				JOINT Shoulder_L
				{
					OFFSET 12.9942 -0.242716 4.98039
					CHANNELS 6 Xposition Yposition Zposition Zrotation Xrotation Yrotation 
					JOINT UpperArm_L
					{
						OFFSET 5.34809 0.0 0.0
						CHANNELS 6 Xposition Yposition Zposition Zrotation Xrotation Yrotation 
						JOINT LowerArm_L
						{
							OFFSET 24.3286 1.87007e-05 0.0
							CHANNELS 6 Xposition Yposition Zposition Zrotation Xrotation Yrotation 
							JOINT Hand_L
							{
								OFFSET 22.2916 0.0 0.0
								CHANNELS 6 Xposition Yposition Zposition Zrotation Xrotation Yrotation 
								End Site
								{
									OFFSET 0.0 0.0 0.0
								}
							}
						}
					}
				}
				JOINT Shoulder_R
				{
					OFFSET 12.9945 -0.242716 -4.98039
					CHANNELS 6 Xposition Yposition Zposition Zrotation Xrotation Yrotation 
					JOINT UpperArm_R
					{
						OFFSET -5.34813 0.0 0.0
						CHANNELS 6 Xposition Yposition Zposition Zrotation Xrotation Yrotation 
						JOINT LowerArm_R
						{
							OFFSET -24.3289 0.000322201 0.0
							CHANNELS 6 Xposition Yposition Zposition Zrotation Xrotation Yrotation 
							JOINT Hand_R
							{
								OFFSET -22.2915 -0.000108084 0.0
								CHANNELS 6 Xposition Yposition Zposition Zrotation Xrotation Yrotation 
								End Site
								{
									OFFSET 0.0 0.0 0.0
								}
							}
						}
					}
				}
			}
		}
		JOINT UpperLeg_L
		{
			OFFSET -2.19248 -6.46944 0.0
			CHANNELS 6 Xposition Yposition Zposition Zrotation Xrotation Yrotation 
			JOINT LowerLeg_L
			{
				OFFSET 39.0811 0.0 -1.23785e-05
				CHANNELS 6 Xposition Yposition Zposition Zrotation Xrotation Yrotation 
				JOINT Foot_L
				{
					OFFSET 40.9854 0.0 -1.26872e-05
					CHANNELS 6 Xposition Yposition Zposition Zrotation Xrotation Yrotation 
					JOINT Toes_L
					{
						OFFSET 11.7543 0.0 0.0
						CHANNELS 6 Xposition Yposition Zposition Zrotation Xrotation Yrotation 
						End Site
						{
							OFFSET 0.0 0.0 0.0
						}
					}
				}
			}
		}
		JOINT UpperLeg_R
		{
			OFFSET -2.19251 6.46944 0.0
			CHANNELS 6 Xposition Yposition Zposition Zrotation Xrotation Yrotation 
			JOINT LowerLeg_R
			{
				OFFSET -39.0811 -0.00228153 -0.0401928
				CHANNELS 6 Xposition Yposition Zposition Zrotation Xrotation Yrotation 
				JOINT Foot_R
				{
					OFFSET -40.9854 0.0 0.0
					CHANNELS 6 Xposition Yposition Zposition Zrotation Xrotation Yrotation 
					JOINT Toes_R
					{
						OFFSET -11.7543 0.0 0.0
						CHANNELS 6 Xposition Yposition Zposition Zrotation Xrotation Yrotation 
						End Site
						{
							OFFSET 0.0 0.0 0.0
						}
					}
				}
			}
		}
	}
}
MOTION
Frames:	4
Frame Time:	0.0333333
0.000000 0.000000 0.000000 0.000000 0.000000 -0.000000 -0.451191 92.592900 -0.609414 85.553200 0.767816 0.746072 15.735700 0.000005 -0.000001 81.668800 87.452500 -79.226100 8.984550 -0.406207 -0.000000 -2.699880 -0.960909 4.863010 16.377300 -0.000001 -0.000001 4.703250 3.716880 -0.825966 6.456720 -0.000001 -0.000000 3.396300 5.082380 -5.894870 12.994200 -0.242716 4.980390 -92.719200 8.383540 -71.956800 5.348090 -0.000007 -0.000001 -74.865900 17.122300 2.471840 24.328600 0.000019 0.000005 12.877400 25.829800 -27.686300 22.291600 -0.000001 0.000005 -0.741534 4.944250 8.482670 12.994500 -0.242716 -4.980390 88.503300 4.826590 -72.749300 -5.348130 -0.000001 -0.000004 -71.169800 22.312600 -2.048820 -24.328900 0.000322 -0.000009 0.538446 1.499830 -19.786000 -22.291500 -0.000108 -0.000004 5.927080 5.294910 0.214638 -2.192480 -6.469440 -0.000000 -175.462000 -0.443876 -5.327740 39.081100 -0.000007 -0.000012 0.296899 -0.673385 23.793600 40.985400 -0.000006 -0.000013 2.702060 7.157220 -73.568900 11.754300 -0.000000 0.000003 0.000339 0.161701 -10.018600 -2.192510 6.469440 -0.000001 -173.766000 6.421700 -178.713000 -39.081100 -0.002282 -0.040193 0.054514 -0.218734 13.169400 -40.985400 0.000008 0.000006 0.818735 1.909610 -69.524400 -11.754300 -0.000006 -0.000006 -0.011304 0.280804 -5.162280
0.000000 0.000000 0.000000 0.000000 0.000000 -0.000000 -0.445609 92.605200 -0.616935 85.582900 0.885465 0.712730 15.735700 0.000005 -0.000001 81.262300 87.451800 -78.811500 8.984550 -0.406207 -0.000000 -2.702850 -0.997688 4.878510 16.377300 -0.000001 -0.000001 4.597540 3.695420 -0.799612 6.456720 -0.000001 -0.000000 3.236460 5.016960 -5.851260 12.994200 -0.242716 4.980390 -92.708100 8.384190 -72.027000 5.348090 -0.000007 -0.000001 -74.551400 16.281100 1.747010 24.328600 0.000019 0.000005 12.811100 26.731800 -26.818300 22.291600 -0.000001 0.000005 -0.615201 4.934610 8.680050 12.994500 -0.242716 -4.980390 88.523900 4.763790 -72.761400 -5.348130 -0.000001 -0.000004 -70.467100 22.102100 -2.070150 -24.328900 0.000322 -0.000009 0.699872 1.899750 -20.255100 -22.291500 -0.000108 -0.000004 5.054070 5.302650 -0.002371 -2.192480 -6.469440 -0.000000 -175.487000 -0.391269 -5.346230 39.081100 -0.000007 -0.000012 0.294332 -0.670358 23.705300 40.985400 -0.000006 -0.000013 2.708950 7.216350 -73.501900 11.754300 -0.000000 0.000003 0.000315 0.162140 -10.000800 -2.192510 6.469440 -0.000001 -173.800000 6.453700 -178.735000 -39.081100 -0.002282 -0.040193 0.052662 -0.211672 13.118100 -40.985400 0.000008 0.000006 0.716386 1.895510 -69.492700 -11.754300 -0.000006 -0.000006 -0.011697 0.283575 -5.048830
0.000000 0.000000 0.000000 0.000000 0.000000 -0.000000 -0.456344 92.622500 -0.642611 85.620600 1.076410 0.669553 15.735700 0.000005 -0.000001 79.702200 87.437800 -77.243500 8.984550 -0.406207 -0.000000 -2.695170 -1.140050 4.890990 16.377300 -0.000001 -0.000001 4.381830 3.650940 -0.732887 6.456720 -0.000001 -0.000000 3.095900 5.031370 -5.808820 12.994200 -0.242716 4.980390 -92.703500 8.378570 -72.044700 5.348090 -0.000007 -0.000001 -74.194200 14.828100 0.884339 24.328600 0.000019 0.000005 12.205500 27.060900 -25.429600 22.291600 -0.000001 0.000005 -0.657930 4.909570 9.187050 12.994500 -0.242716 -4.980390 88.520600 4.766700 -72.734900 -5.348130 -0.000001 -0.000004 -69.457900 21.381600 -2.280700 -24.328900 0.000322 -0.000009 0.987244 2.617590 -20.691600 -22.291500 -0.000108 -0.000004 3.515670 5.301320 0.037340 -2.192480 -6.469440 -0.000000 -175.517000 -0.278572 -5.380620 39.081100 -0.000007 -0.000012 0.289880 -0.663892 23.588500 40.985400 -0.000006 -0.000013 2.710110 7.277700 -73.397200 11.754300 -0.000000 0.000003 0.000329 0.161886 -10.011100 -2.192510 6.469440 -0.000001 -173.845000 6.580580 -178.772000 -39.081100 -0.002282 -0.040193 0.049280 -0.198233 13.049600 -40.985400 0.000008 0.000006 0.512827 1.847160 -69.403700 -11.754300 -0.000006 -0.000006 -0.011635 0.283138 -5.066720
0.000000 0.000000 0.000000 0.000000 0.000000 -0.000000 -0.457985 92.635100 -0.678291 85.655300 1.184540 0.627738 15.735700 0.000005 -0.000001 79.222800 87.435900 -76.754600 8.984550 -0.406207 -0.000000 -2.698280 -1.183820 4.908790 16.377300 -0.000001 -0.000001 4.206370 3.594640 -0.618243 6.456720 -0.000001 -0.000000 2.861050 5.051320 -5.747990 12.994200 -0.242716 4.980390 -92.719100 8.437490 -72.064800 5.348090 -0.000007 -0.000001 -73.577900 12.797100 -0.220272 24.328600 0.000019 0.000005 11.602600 27.773400 -23.779300 22.291600 -0.000001 0.000005 -1.342300 4.885610 9.664220 12.994500 -0.242716 -4.980390 88.530100 4.712680 -72.654700 -5.348130 -0.000001 -0.000004 -68.291000 19.851300 -2.542730 -24.328900 0.000322 -0.000009 1.330760 3.423780 -21.269600 -22.291500 -0.000108 -0.000004 1.708620 5.282760 0.555055 -2.192480 -6.469440 -0.000000 -175.545000 -0.262117 -5.423180 39.081100 -0.000007 -0.000012 0.290041 -0.666773 23.509300 40.985400 -0.000006 -0.000013 2.720060 7.368450 -73.334700 11.754300 -0.000000 0.000003 0.000270 0.162948 -9.967940 -2.192510 6.469440 -0.000001 -173.864000 6.557130 -178.821000 -39.081100 -0.002282 -0.040193 0.047701 -0.192239 12.995800 -40.985400 0.000008 0.000006 0.446418 1.726030 -69.312400 -11.754300 -0.000006 -0.000006 -0.011199 0.280058 -5.192840
